<svg width="144" height="39" viewBox="0 0 144 39" fill="none" xmlns="http://www.w3.org/2000/svg">
<path d="M0.102607 9.74156H2.80261C2.85594 10.1949 3.06261 10.6082 3.42261 10.9816C3.79594 11.3416 4.28261 11.6282 4.88261 11.8416C5.48261 12.0416 6.15594 12.1416 6.90261 12.1416C7.58261 12.1416 8.14261 12.0682 8.58261 11.9216C9.02261 11.7749 9.34927 11.5682 9.56261 11.3016C9.77594 11.0349 9.88261 10.7149 9.88261 10.3416C9.88261 9.98156 9.74927 9.70823 9.48261 9.52156C9.21594 9.32156 8.79594 9.16156 8.22261 9.04156C7.64927 8.90823 6.89594 8.7749 5.96261 8.64156C5.22927 8.5349 4.53594 8.38823 3.88261 8.20156C3.22927 8.00156 2.64927 7.74823 2.14261 7.44156C1.64927 7.1349 1.25594 6.76156 0.962608 6.32156C0.682607 5.86823 0.542607 5.3349 0.542607 4.72156C0.542607 3.96156 0.755941 3.2949 1.18261 2.72156C1.62261 2.14823 2.26927 1.70156 3.12261 1.38156C3.97594 1.06156 5.02261 0.901562 6.26261 0.901562C8.12927 0.901562 9.56261 1.30156 10.5626 2.10156C11.5759 2.88823 12.0693 3.9749 12.0426 5.36156H9.44261C9.38927 4.5749 9.05594 4.00823 8.44261 3.66156C7.84261 3.3149 7.08261 3.14156 6.16261 3.14156C5.30927 3.14156 4.60261 3.26823 4.04261 3.52156C3.49594 3.77489 3.22261 4.20823 3.22261 4.82156C3.22261 5.06156 3.28927 5.2749 3.42261 5.46156C3.55594 5.6349 3.78261 5.78823 4.10261 5.92156C4.42261 6.0549 4.85594 6.18156 5.40261 6.30156C5.94927 6.42156 6.62927 6.54156 7.44261 6.66156C8.20261 6.76823 8.88927 6.9149 9.50261 7.10156C10.1293 7.2749 10.6626 7.50823 11.1026 7.80156C11.5559 8.08156 11.9026 8.44156 12.1426 8.88156C12.3826 9.32156 12.5026 9.86156 12.5026 10.5016C12.5026 11.2882 12.2959 11.9749 11.8826 12.5616C11.4826 13.1349 10.8559 13.5816 10.0026 13.9016C9.16261 14.2216 8.06927 14.3816 6.72261 14.3816C5.76261 14.3816 4.91594 14.2816 4.18261 14.0816C3.44927 13.8682 2.81594 13.5882 2.28261 13.2416C1.74927 12.8949 1.31594 12.5149 0.982607 12.1016C0.649274 11.6882 0.409274 11.2749 0.262607 10.8616C0.129274 10.4482 0.0759408 10.0749 0.102607 9.74156ZM25.0093 1.16156H38.6493V3.38156H25.0093V1.16156ZM30.5093 3.10156H33.1693V14.1016H30.5093V3.10156ZM63.7629 8.38156V1.16156H66.4229V8.66156C66.4229 9.5149 66.2963 10.2616 66.0429 10.9016C65.8029 11.5416 65.4563 12.0816 65.0029 12.5216C64.5496 12.9616 64.0163 13.3216 63.4029 13.6016C62.8029 13.8682 62.1429 14.0616 61.4229 14.1816C60.7163 14.3016 59.9696 14.3616 59.1829 14.3616C58.3696 14.3616 57.5963 14.3016 56.8629 14.1816C56.1296 14.0616 55.4563 13.8682 54.8429 13.6016C54.2429 13.3216 53.7229 12.9616 53.2829 12.5216C52.8429 12.0816 52.4963 11.5416 52.2429 10.9016C52.0029 10.2616 51.8829 9.5149 51.8829 8.66156V1.16156H54.5429V8.38156C54.5429 9.3949 54.7429 10.1682 55.1429 10.7016C55.5429 11.2216 56.0896 11.5816 56.7829 11.7816C57.4896 11.9682 58.2896 12.0616 59.1829 12.0616C60.0496 12.0616 60.8229 11.9682 61.5029 11.7816C62.1963 11.5816 62.7429 11.2216 63.1429 10.7016C63.5563 10.1682 63.7629 9.3949 63.7629 8.38156ZM88.2001 1.16156C89.6534 1.16156 90.8668 1.3349 91.8401 1.68156C92.8134 2.02823 93.5868 2.50156 94.1601 3.10156C94.7468 3.68823 95.1601 4.36823 95.4001 5.14156C95.6534 5.9149 95.7801 6.72823 95.7801 7.58156C95.7801 8.4349 95.6401 9.2549 95.3601 10.0416C95.0934 10.8282 94.6601 11.5282 94.0601 12.1416C93.4734 12.7416 92.6934 13.2216 91.7201 13.5816C90.7601 13.9282 89.5868 14.1016 88.2001 14.1016H80.8001V1.16156H88.2001ZM83.4601 11.8216H88.1401C89.1001 11.8216 89.8934 11.7082 90.5201 11.4816C91.1601 11.2416 91.6668 10.9216 92.0401 10.5216C92.4134 10.1216 92.6801 9.66823 92.8401 9.16156C93.0001 8.6549 93.0801 8.12823 93.0801 7.58156C93.0801 7.0349 93.0001 6.5149 92.8401 6.02156C92.6801 5.52823 92.4134 5.08823 92.0401 4.70156C91.6668 4.3149 91.1601 4.00823 90.5201 3.78156C89.8934 3.55489 89.1001 3.44156 88.1401 3.44156H83.4601V11.8216ZM110.058 1.16156H112.718V14.1016H110.058V1.16156ZM135.163 14.3616C133.443 14.3616 131.969 14.0949 130.743 13.5616C129.529 13.0149 128.596 12.2416 127.943 11.2416C127.303 10.2416 126.983 9.04156 126.983 7.64156C126.983 6.22823 127.303 5.02156 127.943 4.02156C128.596 3.02156 129.529 2.25489 130.743 1.72156C131.969 1.1749 133.443 0.901562 135.163 0.901562C136.896 0.901562 138.369 1.1749 139.583 1.72156C140.796 2.25489 141.723 3.02156 142.363 4.02156C143.016 5.02156 143.343 6.22823 143.343 7.64156C143.343 9.04156 143.016 10.2416 142.363 11.2416C141.723 12.2416 140.796 13.0149 139.583 13.5616C138.369 14.0949 136.896 14.3616 135.163 14.3616ZM135.163 12.0616C136.229 12.0616 137.163 11.9016 137.963 11.5816C138.776 11.2616 139.409 10.7749 139.863 10.1216C140.329 9.46823 140.563 8.64156 140.563 7.64156C140.563 6.64156 140.329 5.8149 139.863 5.16156C139.409 4.50823 138.776 4.02156 137.963 3.70156C137.163 3.36823 136.229 3.20156 135.163 3.20156C134.109 3.20156 133.169 3.36823 132.343 3.70156C131.516 4.02156 130.869 4.50823 130.403 5.16156C129.936 5.8149 129.703 6.64156 129.703 7.64156C129.703 8.64156 129.936 9.46823 130.403 10.1216C130.869 10.7749 131.516 11.2616 132.343 11.5816C133.169 11.9016 134.109 12.0616 135.163 12.0616ZM8.40261 38.3616C7.20261 38.3616 6.11594 38.2216 5.14261 37.9416C4.18261 37.6616 3.34927 37.2416 2.64261 36.6816C1.94927 36.1216 1.41594 35.4282 1.04261 34.6016C0.669274 33.7749 0.482607 32.8216 0.482607 31.7416C0.482607 30.6482 0.675941 29.6816 1.06261 28.8416C1.46261 27.9882 2.02261 27.2682 2.74261 26.6816C3.47594 26.0949 4.34261 25.6549 5.34261 25.3616C6.35594 25.0549 7.47594 24.9016 8.70261 24.9016C10.1559 24.9016 11.4093 25.1082 12.4626 25.5216C13.5159 25.9216 14.3426 26.4882 14.9426 27.2216C15.5559 27.9549 15.9026 28.8282 15.9826 29.8416H13.4226C13.2493 29.3082 12.9626 28.8482 12.5626 28.4616C12.1759 28.0616 11.6626 27.7549 11.0226 27.5416C10.3826 27.3149 9.60927 27.2016 8.70261 27.2016C7.54261 27.2016 6.54927 27.3882 5.72261 27.7616C4.90927 28.1349 4.28927 28.6616 3.86261 29.3416C3.43594 30.0216 3.22261 30.8216 3.22261 31.7416C3.22261 32.6349 3.40927 33.4082 3.78261 34.0616C4.15594 34.7016 4.72927 35.1949 5.50261 35.5416C6.28927 35.8882 7.28927 36.0616 8.50261 36.0616C9.43594 36.0616 10.2559 35.9416 10.9626 35.7016C11.6826 35.4482 12.2826 35.1149 12.7626 34.7016C13.2426 34.2749 13.5826 33.8016 13.7826 33.2816L14.8226 32.9016C14.6493 34.6216 13.9959 35.9616 12.8626 36.9216C11.7426 37.8816 10.2559 38.3616 8.40261 38.3616ZM14.1426 38.1016C14.1426 37.6882 14.1693 37.2149 14.2226 36.6816C14.2759 36.1349 14.3426 35.5882 14.4226 35.0416C14.5026 34.4816 14.5759 33.9682 14.6426 33.5016H8.72261V31.8016H16.4426V38.1016H14.1426ZM34.3439 38.1016V25.1616H43.1239C44.1239 25.1616 44.9905 25.3016 45.7239 25.5816C46.4705 25.8482 47.0505 26.2749 47.4639 26.8616C47.8772 27.4349 48.0839 28.1749 48.0839 29.0816C48.0839 29.6949 47.9772 30.2149 47.7639 30.6416C47.5505 31.0682 47.2505 31.4149 46.8639 31.6816C46.4905 31.9482 46.0572 32.1549 45.5639 32.3016C45.0705 32.4349 44.5439 32.5216 43.9839 32.5616L43.7039 32.4016C44.6372 32.4149 45.4039 32.4949 46.0039 32.6416C46.6039 32.7749 47.0505 33.0282 47.3439 33.4016C47.6505 33.7616 47.8039 34.3016 47.8039 35.0216V38.1016H45.1439V35.2016C45.1439 34.7082 45.0572 34.3282 44.8839 34.0616C44.7105 33.7816 44.3972 33.5882 43.9439 33.4816C43.5039 33.3749 42.8639 33.3216 42.0239 33.3216H37.0039V38.1016H34.3439ZM37.0039 31.2416H43.1239C43.8705 31.2416 44.4372 31.0616 44.8239 30.7016C45.2239 30.3416 45.4239 29.8549 45.4239 29.2416C45.4239 28.6549 45.2239 28.2082 44.8239 27.9016C44.4372 27.5949 43.8705 27.4416 43.1239 27.4416H37.0039V31.2416ZM68.6273 32.7016V35.8816H78.6073V38.1016H65.9673V25.1616H78.5873V27.3816H68.6273V30.6016H76.7873V32.7016H68.6273ZM99.0984 32.7016V35.8816H109.078V38.1016H96.4384V25.1616H109.058V27.3816H99.0984V30.6016H107.258V32.7016H99.0984ZM140.029 35.4616L139.189 35.8016V25.1616H141.849V38.1016H139.189L128.729 27.8816L129.569 27.5416V38.1016H126.909V25.1616H129.569L140.029 35.4616Z" fill="black"/>
</svg>
