<svg width="20" height="20" viewBox="0 0 20 20" fill="none" xmlns="http://www.w3.org/2000/svg">
<path d="M14.0759 2.03285C15.173 2.036 16.2242 2.45677 17 3.20325C17.7757 3.94974 18.213 4.96129 18.2162 6.01697V13.9844C18.213 15.0401 17.7757 16.0516 17 16.7981C16.2242 17.5446 15.173 17.9653 14.0759 17.9685H5.79618C4.69911 17.9653 3.6479 17.5446 2.87215 16.7981C2.0964 16.0516 1.65914 15.0401 1.65586 13.9844V6.01697C1.65914 4.96129 2.0964 3.94974 2.87215 3.20325C3.6479 2.45677 4.69911 2.036 5.79618 2.03285H14.0759V2.03285ZM14.0759 0.439453H5.79618C2.60821 0.439453 0 2.94927 0 6.01697V13.9844C0 17.0521 2.60821 19.5619 5.79618 19.5619H14.0759C17.2639 19.5619 19.8721 17.0521 19.8721 13.9844V6.01697C19.8721 2.94927 17.2639 0.439453 14.0759 0.439453V0.439453Z" fill="white"/>
<path d="M15.3179 6.01726C15.0723 6.01726 14.8322 5.94716 14.6279 5.81584C14.4237 5.68451 14.2645 5.49786 14.1705 5.27947C14.0765 5.06109 14.0519 4.82078 14.0998 4.58894C14.1477 4.35711 14.266 4.14415 14.4397 3.97701C14.6134 3.80986 14.8347 3.69603 15.0756 3.64992C15.3165 3.6038 15.5663 3.62747 15.7932 3.71793C16.0202 3.80839 16.2141 3.96157 16.3506 4.15811C16.4871 4.35466 16.5599 4.58573 16.5599 4.82211C16.5603 4.97915 16.5284 5.13471 16.4661 5.27987C16.4038 5.42502 16.3123 5.55691 16.1969 5.66796C16.0815 5.77901 15.9445 5.86703 15.7936 5.92697C15.6428 5.98691 15.4811 6.0176 15.3179 6.01726V6.01726ZM9.93605 6.81374C10.5911 6.81374 11.2315 7.00067 11.7762 7.35088C12.3209 7.7011 12.7454 8.19888 12.9961 8.78126C13.2468 9.36365 13.3124 10.0045 13.1846 10.6228C13.0568 11.241 12.7413 11.8089 12.2781 12.2547C11.8149 12.7004 11.2247 13.004 10.5822 13.1269C9.93972 13.2499 9.27375 13.1868 8.66854 12.9456C8.06332 12.7043 7.54603 12.2958 7.18208 11.7717C6.81814 11.2475 6.62388 10.6313 6.62388 10.001C6.62482 9.15593 6.97408 8.34578 7.59503 7.74825C8.21598 7.15073 9.05789 6.81465 9.93605 6.81374V6.81374ZM9.93605 5.22035C8.95346 5.22035 7.99295 5.50073 7.17596 6.02603C6.35897 6.55133 5.72221 7.29795 5.34619 8.1715C4.97017 9.04504 4.87179 10.0063 5.06348 10.9336C5.25517 11.861 5.72833 12.7128 6.42312 13.3814C7.11791 14.0499 8.00313 14.5052 8.96683 14.6897C9.93053 14.8742 10.9294 14.7795 11.8372 14.4177C12.745 14.0558 13.5209 13.4431 14.0668 12.6569C14.6127 11.8708 14.9041 10.9465 14.9041 10.001C14.9041 8.73306 14.3807 7.51709 13.449 6.62056C12.5173 5.72402 11.2536 5.22035 9.93605 5.22035V5.22035Z" fill="white"/>
</svg>
